<?xml version="1.0" encoding="UTF-8" standalone="no"?>
<!-- Created with Inkscape (http://www.inkscape.org/) -->

<svg
   version="1.1"
   id="svg2"
   width="827.68494"
   height="189.81084"
   viewBox="0 0 827.68494 189.81084"
   xmlns="http://www.w3.org/2000/svg"
   xmlns:svg="http://www.w3.org/2000/svg">
  <defs
     id="defs6" />
  <g
     id="g8"
     transform="translate(-57.034668,241.78651)">
    <path
       style="fill:#6aa84f;fill-opacity:1"
       d="m 132.86267,-54.969442 c -2.47827,-2.653 -4.47141,-6.28547 -7.64008,-13.92394 -0.94146,-2.26951 -1.3174,-1.91736 -6.93906,6.5 -5.57834,8.35248 -6.15733,8.89951 -9.4196,8.89951 -6.79356,0 -6.63045,-4.77067 0.70826,-20.71612 3.55125,-7.71612 3.55125,-7.71612 -7.23391,-19 -5.931845,-6.20613 -11.173885,-11.434958 -11.648985,-11.619608 -4.15234,-1.61383 -21.30077,13.492988 -27.446968,24.179248 -3.933345,6.83882 -5.688408,7.85492 -6.182444,3.57936 -0.743736,-6.43655 15.128242,-25.049748 26.031882,-30.527798 2.88644,-1.45016 7.76857,-5.02526 10.84917,-7.94465 4.19864,-3.97892 7.015525,-5.71917 11.250005,-6.95016 5.20572,-1.51335 5.64891,-1.87199 5.64891,-4.57123 0,-1.61097 -0.3904,-2.92904 -0.86756,-2.92904 -2.68067,0 -15.947675,-14.78662 -17.495995,-19.5 -0.90336,-2.75 -2.76612,-7.21377 -4.13946,-9.91948 -4.13599,-8.14859 -2.4429,-18.33152 3.87411,-23.30048 2.1794,-1.71431 2.51588,-2.59516 1.99197,-5.21468 -0.49371,-2.46859 -0.12896,-3.68567 1.68247,-5.61384 1.92952,-2.05389 2.93674,-5.96899 6.077275,-23.62256 4.97337,-27.95638 1.99081,-25.59338 29.5604,-23.41987 50.27975,3.96392 52.31679,4.82026 52.31679,21.99304 0,29.36308 -0.45715,28.59786 17.08464,28.59786 19.27776,0 23.91536,1.45723 23.91536,7.51472 0,4.52976 -3.15567,5.48528 -18.11552,5.48528 -15.57759,0 -14.88448,-0.41708 -14.88448,8.95679 0,9.85446 -0.78896,11.89493 -6.0648,15.68525 -3.06706,2.20345 -6.42221,6.07591 -9.3905,10.83835 -4.80437,7.70829 -9.08082,11.75173 -16.2947,15.40687 -2.57582,1.30512 -4.25,2.84709 -4.25,3.91438 0,3.49545 11.00333,12.90077 18.78155,16.05392 10.91029,4.42283 24.21845,15.000908 24.21845,19.250208 0,3.04032 -1.79032,2.25179 -8.33557,-3.67132 -13.06673,-11.824708 -20.78689,-14.130988 -23.21272,-6.93444 -1.85282,5.49663 -6.5959,9.22322 -18.40122,14.45767 -7.45621,3.30606 -9.93398,4.85611 -9.59102,6 3.85964,12.87325 4.62276,17.26313 3.56049,20.48186 -1.80319,5.4637 -5.78423,6.09484 -9.99714,1.5849 z m 5.97718,-7.05789 c 0,-2.17632 -3.39296,-13.10588 -4.59374,-14.79756 -0.12923,-0.18206 -1.17351,0.17127 -2.32061,0.78518 -2.46841,1.32106 -2.65019,4.19431 -0.62796,9.92591 3.05225,8.65101 7.54231,11.08375 7.54231,4.08647 z m -24.76549,-2.2987 c 2.71468,-4.2972 6.11511,-12.65155 5.42883,-13.33783 -1.96356,-1.96356 -9.66334,9.97711 -9.66334,14.98571 0,3.77031 1.07624,3.35149 4.23451,-1.64788 z m 16.93675,-18.32283 c 4.25947,-3.85477 0.52343,-11.92075 -4.04076,-8.72386 -1.24121,0.86937 -2.6784,2.68973 -3.19376,4.04524 -1.95699,5.14726 3.10171,8.41876 7.23452,4.67862 z m 23.4257,-8.84896 c 8.07174,-4.73036 10.69339,-11.455218 6.48516,-16.635268 -1.91789,-2.36078 -1.91789,-2.36078 -10.34139,5.85367 -4.63293,4.517938 -9.58422,8.655738 -11.00285,9.195108 -2.5413,0.9662 -2.69298,1.8297 -1.19495,6.8024 0.45343,1.50516 9.72612,-1.50751 16.05403,-5.21591 z m -34.57946,0.46965 c 1.13198,-2.21886 1.72941,-4.58136 1.32763,-5.25 -0.40179,-0.66863 -3.88847,-5.490698 -7.74818,-10.715698 -3.85972,-5.225 -7.13358,-9.67307 -7.27525,-9.8846 -0.70549,-1.05342 -6.631545,2.51099 -8.472105,5.09582 -2.67543,3.75729 -2.06522,5.14064 6.260945,14.193658 5.70974,6.2082 11.12637,10.58117 13.11914,10.59138 0.40132,0.002 1.65584,-1.81169 2.78782,-4.03056 z m 21.54727,-9.005728 c 3.8593,-2.38518 8.43523,-10.83403 8.43523,-15.57453 0,-6.17445 -0.33896,-6.38395 -10.35699,-6.40106 -5.02865,-0.009 -11.84301,-0.66756 -15.14301,-1.46438 -3.3,-0.79682 -6.29348,-1.46479 -6.65217,-1.48438 -3.49008,-0.19062 -3.42964,11.86114 0.0838,16.7113 7.51148,10.369298 15.59748,13.179358 23.63314,8.21305 z m 6.93523,-27.32132 c 15.93115,-4.26195 25.79795,-14.33454 30.01269,-30.63865 1.75503,-6.78906 1.70992,-18.1774 -0.0791,-19.96641 -0.53458,-0.53458 -17.35906,-1.7109 -37.38774,-2.61404 -40.09118,-1.80781 -36.93371,-2.32923 -43.620255,7.20336 -2.22118,3.1666 -3.39324,12.1682 -2.3273,17.87394 3.44949,18.46423 32.449805,33.74691 53.401695,28.1418 z m -15.16161,-14.11419 c -3.09562,-2.16825 -3.52546,-6.73326 -1.83843,-19.52419 1.56177,-11.84113 3.35527,-16.03499 5.28873,-12.36694 0.6649,1.2614 0.54144,4.78487 -0.38078,10.86667 -2.32816,15.3537 -2.05248,17.03407 2.71898,16.57315 2.62486,-0.25356 3.03365,2.701 0.60872,4.39948 -2.7163,1.90257 -3.74304,1.91089 -6.39722,0.0518 z m -17.00256,-23.09168 c -0.33077,-0.86197 -0.12189,-2.04672 0.46417,-2.63279 1.55545,-1.55545 4.2,-0.18998 4.2,2.16863 0,2.46621 -3.7526,2.83966 -4.66417,0.46416 z m 36,0 c -0.33077,-0.86197 -0.12189,-2.04672 0.46417,-2.63279 1.55545,-1.55545 4.2,-0.18998 4.2,2.16863 0,2.46621 -3.7526,2.83966 -4.66417,0.46416 z m 285.66417,70.683528 c 0,-9.116308 0,-9.116308 7.04966,-9.116308 8.08264,0 11.2503,-1.29973 15.8019,-6.48371 4.37517,-4.98305 3.96255,-5.63491 -2.10156,-3.32008 -13.38621,5.10986 -29.77554,-2.57797 -36.65984,-17.19621 -2.533,-5.37863 -2.59765,-6.04617 -2.9297,-30.25 -0.33955,-24.75001 -0.33955,-24.75001 8.75,-24.75001 9.08954,0 9.08954,0 9.09109,22.25001 10e-4,19.20684 0.2407,22.71898 1.75,25.67892 5.33878,10.46998 18.5623,10.50622 24.69438,0.0677 1.87517,-3.19206 2.08183,-5.43447 2.37281,-25.7466 0.31874,-22.25001 0.31874,-22.25001 9.25,-22.25001 8.93126,0 8.93126,0 8.92547,31.75001 -0.003,17.4625 -0.44385,34.42509 -0.97925,37.69464 -2.95482,18.044178 -16.29421,29.528358 -35.26496,30.360368 -9.75,0.4276 -9.75,0.4276 -9.75,-8.6887 z m 401,0.08 c 0,-8.991088 0,-8.991088 8.32902,-9.343698 8.80054,-0.37258 13.99224,-2.84736 16.73857,-7.97891 1.60276,-2.99478 0.59872,-3.29359 -4.51049,-1.34237 -13.15727,5.02481 -30.91357,-4.17721 -36.41064,-18.86943 -1.97595,-5.28121 -2.14646,-7.6404 -2.14646,-29.69941 0,-23.9625 0,-23.9625 8.41683,-23.9625 8.41683,0 8.41683,0 8.75,22.25001 0.30119,20.11428 0.52999,22.62515 2.38366,26.15837 4.16405,7.93697 14.3669,9.89486 20.6148,3.9559 5.64797,-5.3687 5.83471,-6.33892 5.83471,-30.31461 0,-22.04967 0,-22.04967 9.04603,-22.04967 9.04603,0 9.04603,0 8.75,36.75001 -0.29603,36.75 -0.29603,36.75 -3.11441,42.48943 -6.53603,13.310178 -17.28799,20.035128 -32.93162,20.597488 -9.75,0.35049 -9.75,0.35049 -9.75,-8.6406 z m -480.5,-18.605328 c -18.83562,-4.66722 -29.71635,-22.18549 -26.55291,-42.75094 4.48787,-29.17559 35.60912,-41.89132 58.23926,-23.79579 3.68635,2.94769 3.68635,2.94769 7.37046,-1.54829 7.49096,-9.14172 7.44319,-9.3471 7.44319,32.00404 0,43.73806 0.50527,42.46051 -10.55893,26.69781 -0.11666,-0.1662 -3.04279,1.52738 -6.50252,3.76351 -10.40274,6.72362 -18.65487,8.30171 -29.43855,5.62966 z m 15.78212,-17.99202 c 18.70212,-8.14272 15.19291,-36.73404 -4.71122,-38.38465 -11.53243,-0.95636 -18.78408,5.8755 -19.41084,18.28717 -0.7797,15.44035 11.43829,25.61988 24.12206,20.09748 z m 277.21788,18.52136 c -17.59083,-4.64529 -20.86779,-11.84697 -21.32728,-46.87032 -0.34439,-26.25001 -0.34439,-26.25001 8.69256,-26.25001 9.03696,0 9.03696,0 9.33584,25.08364 0.29888,25.08363 0.29888,25.08363 3.56466,28 4.28,3.82208 8.18843,3.82209 12.46844,2e-5 3.26578,-2.91635 3.26578,-2.91635 3.57916,-28 0.31338,-25.08366 0.31338,-25.08366 8.70112,-25.08366 8.38774,0 8.38774,0 8.68662,25.08364 0.29888,25.08363 0.29888,25.08363 3.56466,28 2.05307,1.83341 4.36807,2.91637 6.23422,2.91637 1.86615,0 4.18115,-1.08296 6.23422,-2.91637 3.26578,-2.91637 3.26578,-2.91637 3.56466,-28 0.29888,-25.08364 0.29888,-25.08364 8.75,-25.08364 8.45112,0 8.45112,0 8.42916,26.75001 -0.0241,29.30577 -0.26317,30.71546 -6.45368,38.04916 -7.58676,8.9878 -22.9947,11.55361 -33.52252,5.58234 -5.49816,-3.11849 -5.49816,-3.11849 -10.74867,-0.15529 -5.60524,3.1634 -14.04878,4.4005 -19.75317,2.89411 z m 109.73207,-0.1808 c -26.34706,-5.19387 -37.20797,-39.43854 -19.76232,-62.31098 11.21348,-14.70163 33.11346,-17.0183 49.51144,-5.23753 4.70899,3.38307 4.70899,3.38307 8.1139,-0.96612 2.1794,-2.78381 4.21474,-4.36281 5.65491,-4.38704 2.25,-0.0379 2.25,-0.0379 2.25,36.46215 0,35.84344 -0.036,36.5 -2.00166,36.5 -1.25638,0 -3.33914,-1.86167 -5.59381,-5 -4.28911,-5.97012 -3.09703,-5.85369 -10.05191,-0.98179 -9.05829,6.34536 -17.23523,8.06716 -28.12055,5.92131 z m 14.5364,-18.48725 c 14.90884,-6.22931 16.91203,-26.51407 3.49593,-35.40053 -10.33592,-6.84624 -23.97037,-1.97291 -27.22039,9.72931 -4.66496,16.79689 9.16025,31.75654 23.72446,25.67122 z m -529.76847,-30.02467 c 0,-48.57242 0,-48.57242 20.83059,-48.25001 24.39207,0.37752 32.40457,3.03369 43.02454,14.26273 18.03745,19.07195 17.43862,50.69689 -1.29546,68.41481 -11.36474,10.74829 -22.80221,14.05559 -48.80967,14.11399 -13.75,0.0309 -13.75,0.0309 -13.75,-48.54152 z m 40.79242,26.55108 c 30.30416,-13.37274 19.56662,-55.70407 -14.29242,-56.34598 -7,-0.13271 -7,-0.13271 -7.26598,28.35447 -0.14628,15.66795 -0.0226,29.12129 0.27476,29.89631 0.79477,2.07113 15.19402,0.78245 21.28364,-1.9048 z m 252.40934,-12.72868 c 0.29824,-34.75001 0.5476,-34.63039 3.29824,-40.68439 12.73203,-28.02249 53.50957,-29.36496 68.18273,-2.82961 4.60032,8.31936 5.29263,12.34905 5.3054,46.514 0.0119,31.75 0.0119,31.75 -9.48813,31.75 -9.5,0 -9.5,0 -9.5,-10.02114 0,-10.02114 0,-10.02114 -19.75,-9.75 -19.75,0.27114 -19.75,0.27114 -20.03621,10.02114 -0.28621,9.75 -0.28621,9.75 -9.29824,9.75 -9.01202,0 -9.01202,0 -8.71379,-34.75 z m 57.79824,-15.78212 c 0,-16.62565 -3.82961,-23.85497 -14.28088,-26.95866 -14.87337,-4.41692 -24.68466,5.0763 -25.51753,24.69027 -0.64235,15.1274 -2.59099,13.80051 20.26703,13.80051 19.53138,0 19.53138,0 19.53138,-11.53212 z"
       id="path2517" />
    <path
       style="fill:#2d5016;stroke-width:0.125"
       d="m 105.3125,-117.74707 c -2.44361,0.51489 -4.48714,2.13222 -6.367273,3.69251 -1.754831,1.55248 -3.600943,3.65156 -3.333899,6.16564 0.49602,2.74746 2.623445,4.77295 4.300781,6.86402 4.030731,4.539732 8.131111,9.107635 13.033241,12.732426 1.25203,0.808458 2.52388,1.973154 4.10079,1.940179 1.335,-0.294274 1.86576,-1.75526 2.57806,-2.764316 1.20337,-2.148644 2.41209,-4.481094 2.42364,-6.994318 -0.40823,-1.138431 -1.37849,-2.022739 -2.01104,-3.059611 -4.43961,-6.13823 -8.94719,-12.22696 -13.43206,-18.33215 -0.36585,-0.39175 -0.80918,-0.33781 -1.29224,-0.24438 z"
       id="path4321" />
    <path
       style="fill:#2d5016;stroke-width:0.125"
       d="m 159.14551,-110.17456 c -1.71347,0.16291 -2.88281,1.63383 -4.13707,2.65599 -4.77996,4.40198 -9.20966,9.189279 -14.50136,12.99806 -1.26651,0.979704 -3.31268,1.325457 -3.71875,3.120851 -0.28688,1.792369 0.42152,3.561649 0.92578,5.253419 0.41137,1.225887 1.95807,1.008452 2.95522,0.852546 4.29833,-0.840026 8.3734,-2.583939 12.26333,-4.557576 3.98043,-2.119168 7.93876,-4.953266 9.88301,-9.158252 1.07871,-2.553488 1.13836,-5.651858 -0.34457,-8.065468 -0.70312,-1.13631 -1.45592,-2.42172 -2.69571,-3.02315 -0.20329,-0.0638 -0.41796,-0.0791 -0.62988,-0.0764 z"
       id="path4325" />
    <path
       style="fill:#2d5016;stroke-width:0.125"
       d="m 118.87817,-78.530762 c -1.64442,0.184565 -2.69023,1.696774 -3.72216,2.832276 -2.54659,3.264709 -4.62462,6.969343 -5.74878,10.968993 -0.357,1.514115 -0.49661,3.210292 0.1311,4.666993 0.48868,0.903365 1.70967,0.640505 2.25391,-0.05859 2.24424,-2.257386 3.67925,-5.166685 5.13012,-7.963379 1.31776,-2.818404 2.71028,-5.666484 3.33545,-8.732422 0.17558,-0.931829 -0.32617,-1.816141 -1.37964,-1.713867 z"
       id="path4327" />
    <path
       style="fill:#2d5016;stroke-width:0.125"
       d="m 133.74414,-77.527832 c -1.41361,0.334886 -2.8314,1.076955 -3.7334,2.24707 -1.284,1.951833 -0.78006,4.464353 -0.27002,6.589356 1.02447,3.567498 2.36012,7.193505 4.80225,10.050537 0.83066,0.962975 2.38078,1.984023 3.57544,1.032226 1.492,-1.129382 1.40527,-3.220652 1.39673,-4.903808 -0.46322,-3.221365 -1.5525,-6.317941 -2.51758,-9.415528 -0.65003,-1.734481 -1.0959,-3.604929 -2.14038,-5.152832 -0.27659,-0.311752 -0.69695,-0.483946 -1.11304,-0.447021 z"
       id="path4329" />
    <path
       style="fill:#c6e9af;stroke-width:0.125"
       d="m 128.95264,-92.797119 c -2.30259,0.117364 -3.95343,2.065166 -5.13229,3.851407 -1.33797,2.039514 -1.80347,5.073507 -0.0284,7.008944 0.8886,1.101029 2.27923,1.7482 3.70093,1.568848 2.21877,-0.05156 4.27063,-1.550725 5.32178,-3.456299 1.35827,-2.645929 0.91675,-6.408287 -1.56519,-8.249756 -0.66763,-0.469984 -1.47883,-0.733594 -2.29687,-0.723144 z"
       id="path4400" />
    <path
       style="fill:#445016;fill-opacity:1;stroke-width:0.125"
       d="m 71.957275,149.06689 c -2.389336,0.15615 -4.104988,2.19878 -5.259587,4.10832 -1.266723,2.04948 -1.531059,5.02862 0.318181,6.82552 1.012562,1.14714 2.586672,1.60205 4.065186,1.27808 3.167312,-0.50532 5.611224,-3.60062 5.369385,-6.80371 -0.03609,-2.48434 -1.756285,-5.38306 -4.493165,-5.40821 z"
       id="path1231"
       transform="translate(57.034668,-241.78651)" />
  </g>
</svg>
